<svg id="Chouette" data-name="Chouette" xmlns="http://www.w3.org/2000/svg" viewBox="0 0 119.8 137.5">
<defs>
<style>.cls-chouetteBlanche{fill:#fff;}</style>
</defs>
<title>logoAthena4Bl</title>
<path class="cls-chouetteBlanche" d="M183.19,112.39V112.3c-0.9.55-1.79,1.14-2.68,1.74a58.3,58.3,0,1,0-114.23.07c-0.93-.63-1.86-1.24-2.79-1.81,0.2,10.7,3.3,23,9.3,35s13.9,21.8,22.4,28.5c0-1.59-.13-3.22-0.29-4.87A87.53,87.53,0,0,0,108.2,181.3a81.15,81.15,0,0,0-3.55-15.1l18.65,15.9,18.79-16a81.23,81.23,0,0,0-3.59,15.2,85.47,85.47,0,0,0,13.4-10.43c-0.16,1.67-.27,3.32-0.3,4.93,8.4-6.7,16.4-16.5,22.4-28.5s9.1-24.3,9.3-35ZM123.4,177.5l-21.27-18A110,110,0,0,0,93,142.2a102.38,102.38,0,0,0-22.31-24.87A53.71,53.71,0,0,1,68.6,102.5a54.8,54.8,0,1,1,107.56,14.71,102.56,102.56,0,0,0-22.46,25,110,110,0,0,0-9.12,17.26Z" transform="translate(-63.5 -44.6)"/>
<path class="cls-1" d="M156.6,65.7L123.4,80,90.2,65.7s-20.1,17.5-13.1,35S123.4,137,123.5,137h0s39.4-18.8,46.4-36.3S156.6,65.7,156.6,65.7ZM97,101.3a7.8,7.8,0,1,1,7.8-7.8A7.81,7.81,0,0,1,97,101.3Zm26.4,26.2-10.3-19,10.3-10.3,10.3,10.3Zm26.4-26.2a7.8,7.8,0,1,1,7.8-7.8A7.81,7.81,0,0,1,149.8,101.3Z" transform="translate(-63.5 -44.6)"/>
</svg>