<svg xmlns="http://www.w3.org/2000/svg" width="169" height="169" viewBox="0 0 169 169">
  <defs>
    <style>
      .cls-1, .cls-5 {
        fill: none;
      }

      .cls-1 {
        stroke: #860e04;
      }

      .cls-2 {
        fill: #fff;
        stroke: #707070;
      }

      .cls-3 {
        fill: #860e04;
        stroke: rgba(0,0,0,0);
      }

      .cls-4 {
        stroke: none;
      }
    </style>
  </defs>
  <g id="Groupe_219" data-name="Groupe 219" transform="translate(-606 -456)">
    <g id="Ellipse_53" data-name="Ellipse 53" class="cls-1" transform="translate(606 456)">
      <circle class="cls-4" cx="84.5" cy="84.5" r="84.5"/>
      <circle class="cls-5" cx="84.5" cy="84.5" r="84"/>
    </g>
    <g id="Groupe_218" data-name="Groupe 218">
      <path id="Tracé_251" data-name="Tracé 251" class="cls-2" d="M2803.43,520.821l-3.526-7.674,4.563-9.541,6.845-2.7,6.222,1.245,5.185,5.185,1.452,7.882-2.7,5.6,4.563,4.356,4.978-4.356,4.771-1.245,6.637,2.282,3.941,4.148,3.941-5.185-3.941-7.674,4.978-9.541,6.637-2.7,9.334,2.7,3.733,8.3-1.867,8.919,4.771,8.089,2.281,10.786-1.037,6.637-4.148,3.733-4.563,14.727-5.6,3.526-5.393-1.659-4.148-1.867-3.733,3.526-3.111,12.86-4.978,5.185h-6.015l-5.6-5.185-1.867-7.674-1.867-5.185-4.148-3.526-6.223,3.526-5.808-1.659-4.563-5.393-3.526-12.86-3.526-2.074-1.037-6.637,2.074-10.786Z" transform="translate(-2145)"/>
      <path id="Union_2" data-name="Union 2" class="cls-3" d="M-2114.15,78.8l-.019-.082-1.838-9.177a6.915,6.915,0,0,1-3.333-2.069,11.216,11.216,0,0,1-2.215,1.67,9.829,9.829,0,0,1-4.943,1.327c-5.241,0-9.641-4.052-11.208-10.323l-.018-.082-1.838-9.177a6.77,6.77,0,0,1-4.759-4.647,20.055,20.055,0,0,1-.679-6.224l.005-.146c.74-8.98,2.817-14.333,7.169-18.478a13.557,13.557,0,0,1-2.394-7.67A13.737,13.737,0,0,1-2126.5,0a13.737,13.737,0,0,1,13.721,13.721,13.552,13.552,0,0,1-2.4,7.672,20.3,20.3,0,0,1,1.849,2.017,13.7,13.7,0,0,1,10.38-4.757,13.7,13.7,0,0,1,10.374,4.749,20.448,20.448,0,0,1,1.854-2.011,13.554,13.554,0,0,1-2.4-7.67A13.737,13.737,0,0,1-2079.387,0a13.737,13.737,0,0,1,13.722,13.721,13.551,13.551,0,0,1-2.4,7.672,20.269,20.269,0,0,1,4.935,7.436,38.7,38.7,0,0,1,2.228,10.84l.005.144a19.684,19.684,0,0,1-.749,6.657,6.878,6.878,0,0,1-4.681,4.412l-1.832,9.152c-1.581,6.338-5.99,10.434-11.234,10.434a10.276,10.276,0,0,1-7.177-3,7.033,7.033,0,0,1-3.313,2.064l-1.833,9.152c-1.581,6.338-5.99,10.434-11.234,10.434S-2112.582,85.07-2114.15,78.8Zm1.027-46.424a10.145,10.145,0,0,0,2.595,6.719l1.219,1.375-1.419,1.167c-4.438,3.65-6.453,8.45-7.176,17.1,0,4.729.383,7.023,3.708,7.589l1.2.2,2.292,11.445c1.167,4.619,4.211,7.6,7.761,7.6s6.606-3.025,7.788-7.71l2.267-11.336,1.2-.205c3.344-.571,3.705-2.812,3.7-7.784-.719-8.515-2.732-13.26-7.168-16.908l-1.419-1.167,1.219-1.375a10.142,10.142,0,0,0,2.6-6.719,10.192,10.192,0,0,0-10.181-10.181A10.192,10.192,0,0,0-2113.123,32.376Zm29.762,33.173a6.587,6.587,0,0,0,3.974,1.379c3.55,0,6.606-3.027,7.788-7.71l2.267-11.335,1.2-.205c3.356-.572,3.7-2.812,3.7-7.785-.719-8.517-2.729-13.257-7.169-16.908l-1.418-1.167,1.219-1.374a10.145,10.145,0,0,0,2.6-6.72,10.192,10.192,0,0,0-10.181-10.18,10.192,10.192,0,0,0-10.181,10.18,10.144,10.144,0,0,0,2.6,6.72l1.219,1.374-1.418,1.167a16.977,16.977,0,0,0-3.329,3.6,13.645,13.645,0,0,1,1.281,5.787,13.6,13.6,0,0,1-2.4,7.671c4.333,4.145,6.438,9.592,7.163,18.277l.006.144a24.114,24.114,0,0,1-.431,5.6A8.615,8.615,0,0,0-2083.361,65.549Zm-53.318-51.827a10.144,10.144,0,0,0,2.6,6.72l1.219,1.374-1.418,1.167c-4.441,3.653-6.453,8.448-7.177,17.1,0,4.73.372,7.02,3.708,7.589l1.2.2,2.292,11.445c1.167,4.618,4.215,7.6,7.762,7.6a7.024,7.024,0,0,0,5.491-2.884,23.147,23.147,0,0,1-.438-5.375l.006-.145c.737-8.938,2.784-14.3,7.169-18.479a13.591,13.591,0,0,1-2.395-7.669,13.64,13.64,0,0,1,1.285-5.8,17.134,17.134,0,0,0-3.333-3.6l-1.419-1.167,1.219-1.374a10.146,10.146,0,0,0,2.6-6.72A10.192,10.192,0,0,0-2126.5,3.542,10.192,10.192,0,0,0-2136.678,13.721Z" transform="translate(2793.945 499.384)"/>
    </g>
  </g>
</svg>
