<svg xmlns="http://www.w3.org/2000/svg" xmlns:xlink="http://www.w3.org/1999/xlink" width="375.501" height="668" viewBox="0 0 375.501 668">
  <defs>
    <style>
      .cls-1 {
        fill: url(#radial-gradient);
      }

      .cls-2 {
        fill: rgba(255,255,255,0.45);
      }
    </style>
    <radialGradient id="radial-gradient" cx="0.286" cy="0.142" r="0.596" gradientTransform="translate(-0.223 0.009) scale(1.78 0.937)" gradientUnits="objectBoundingBox">
      <stop offset="0" stop-color="#09fff7"/>
      <stop offset="1" stop-color="#042b85"/>
    </radialGradient>
  </defs>
  <g id="Groupe_163" data-name="Groupe 163" transform="translate(0.5 0.5)">
    <path id="Soustraction_1" data-name="Soustraction 1" class="cls-1" d="M868.6,667.5H497V0H872V666.667Z" transform="translate(-497)"/>
    <path id="Soustraction_3" data-name="Soustraction 3" class="cls-2" d="M616.093,417.586h0L566.375,375.2a216.8,216.8,0,0,1,9.464,40.253,233.839,233.839,0,0,1-35.456-27.644c.4,4.159.773,8.61.773,12.983A194.357,194.357,0,0,1,512.5,372.654V280.416a273.885,273.885,0,0,1,22.819,30.8,294.089,294.089,0,0,1,24.339,46.119l56.7,47.985,56.462-48.065a294.063,294.063,0,0,1,24.312-46.013A273.453,273.453,0,0,1,757.01,244.6,146.049,146.049,0,0,0,689.225,78.5h17.3a155.369,155.369,0,0,1,62.079,157.649c2.268-1.529,4.7-3.148,7.144-4.639v.239l.293-.239a194.017,194.017,0,0,1-6.6,45.353A253.488,253.488,0,0,1,723.794,368.1a203.768,203.768,0,0,1-32.257,32.689c.075-4,.337-8.3.8-13.143a228.334,228.334,0,0,1-35.723,27.8,217.2,217.2,0,0,1,9.571-40.521l-50.091,42.654Zm.534-120.229h0c-.065-.01-4.308-2.014-11.258-5.629-6.283-3.268-16.117-8.549-27.281-15.15-12.451-7.363-23.9-14.788-34.042-22.07A244.946,244.946,0,0,1,512.5,228.123V123.732a142.181,142.181,0,0,1,15.355-16.449L616.361,145.4l88.505-38.121.009.007c.361.314,3.657,3.211,8.156,8.011a149.941,149.941,0,0,1,16.561,21.139c6.5,10.157,10.9,20.212,13.063,29.886a62.109,62.109,0,0,1,1.5,16.857,54.6,54.6,0,0,1-3.835,17.4,71.2,71.2,0,0,1-10.672,17.553,148.784,148.784,0,0,1-16.528,17.249c-11.034,9.962-25.045,20.418-41.645,31.078-14.774,9.487-28.9,17.379-38.146,22.33-10,5.353-16.64,8.53-16.7,8.56Zm-.266-103.434h0L588.9,221.38l27.458,50.651,27.458-50.651-27.458-27.458ZM686.738,160.6a20.793,20.793,0,1,0,20.794,20.794A20.817,20.817,0,0,0,686.738,160.6Zm-140.755,0a20.793,20.793,0,1,0,20.794,20.794A20.817,20.817,0,0,0,545.982,160.6ZM512.5,102.371V89.411A156.485,156.485,0,0,1,526.129,78.5h17.343A145.69,145.69,0,0,0,512.5,102.369Z" transform="translate(-513 -79)"/>
  </g>
</svg>
