<svg xmlns="http://www.w3.org/2000/svg" width="169" height="169" viewBox="0 0 169 169">
  <defs>
    <style>
      .cls-1 {
        fill: #860e04;
      }

      .cls-2 {
        fill: #fff;
      }

      .cls-3 {
        fill: #fbfbfb;
      }

      .cls-4, .cls-6 {
        fill: none;
      }

      .cls-4 {
        stroke: #860e04;
      }

      .cls-5 {
        stroke: none;
      }
    </style>
  </defs>
  <g id="Groupe_194" data-name="Groupe 194" transform="translate(-606 -456)">
    <g id="Groupe_193" data-name="Groupe 193">
      <circle id="Ellipse_39" data-name="Ellipse 39" class="cls-1" cx="75" cy="75" r="75" transform="translate(616 466)"/>
      <g id="Groupe_192" data-name="Groupe 192">
        <g id="Groupe_189" data-name="Groupe 189">
          <path id="Tracé_200" data-name="Tracé 200" class="cls-1" d="M304.2,173.286a11.951,11.951,0,1,0-17.82,0c-4.859,4-7.058,9.139-7.822,18.4,0,4.022,0,8.525,5.181,9.407l2.061,10.294c1.364,5.457,5.089,8.982,9.49,8.982s8.127-3.524,9.516-9.092l2.037-10.184c5.181-.885,5.18-5.406,5.173-9.606C311.262,182.422,309.063,177.283,304.2,173.286Z" transform="translate(372.155 347.714)"/>
          <path id="Tracé_201" data-name="Tracé 201" class="cls-2" d="M291.47,218.316c-5.241,0-9.64-4.052-11.207-10.323l-.018-.082-1.838-9.177c-5.439-1.628-5.439-7.141-5.439-10.871l.006-.146c.737-8.938,2.784-14.3,7.169-18.478a13.592,13.592,0,0,1-2.395-7.669,13.722,13.722,0,0,1,27.444,0,13.593,13.593,0,0,1-2.4,7.671c4.333,4.145,6.439,9.592,7.163,18.277l.006.144a19.7,19.7,0,0,1-.749,6.657,6.874,6.874,0,0,1-4.681,4.412l-1.832,9.152C301.123,214.221,296.713,218.316,291.47,218.316Zm-7.762-11.142c1.168,4.619,4.211,7.6,7.762,7.6s6.606-3.025,7.788-7.71l2.267-11.335,1.2-.2c3.345-.571,3.705-2.813,3.7-7.785-.719-8.514-2.732-13.259-7.169-16.908l-1.419-1.167,1.219-1.375a10.181,10.181,0,1,0-15.17,0l1.219,1.375-1.419,1.167c-4.438,3.651-6.453,8.451-7.176,17.1,0,4.729.383,7.022,3.707,7.589l1.2.2Z" transform="translate(375.977 351.536)"/>
        </g>
        <g id="Groupe_191" data-name="Groupe 191">
          <path id="Tracé_202" data-name="Tracé 202" class="cls-1" d="M453.016,173.286a11.952,11.952,0,1,0-17.82,0c-4.858,4-7.057,9.139-7.821,18.4,0,4.022,0,8.525,5.181,9.407l2.061,10.294c1.364,5.457,5.089,8.982,9.49,8.982s8.127-3.524,9.515-9.092l2.037-10.184c5.181-.885,5.18-5.406,5.173-9.606C460.075,182.422,457.875,177.283,453.016,173.286Z" transform="translate(270.453 347.714)"/>
          <path id="Tracé_203" data-name="Tracé 203" class="cls-3" d="M440.283,218.316c-5.241,0-9.64-4.052-11.208-10.323l-.018-.082-1.838-9.177c-5.439-1.628-5.439-7.141-5.439-10.871l.006-.146c.737-8.938,2.784-14.3,7.169-18.478a13.592,13.592,0,0,1-2.395-7.669,13.722,13.722,0,0,1,27.444,0,13.592,13.592,0,0,1-2.4,7.671c4.332,4.145,6.439,9.592,7.163,18.277l.006.144a19.7,19.7,0,0,1-.749,6.657,6.874,6.874,0,0,1-4.681,4.412l-1.832,9.152C449.935,214.221,445.526,218.316,440.283,218.316Zm-7.762-11.142c1.168,4.619,4.211,7.6,7.762,7.6s6.606-3.025,7.788-7.71l2.267-11.335,1.2-.2c3.345-.571,3.7-2.813,3.7-7.785-.719-8.514-2.732-13.259-7.169-16.908l-1.419-1.167,1.219-1.375a10.181,10.181,0,1,0-15.17,0l1.219,1.375-1.419,1.167c-4.438,3.651-6.453,8.451-7.176,17.1,0,4.729.383,7.022,3.707,7.589l1.2.2Z" transform="translate(274.275 351.536)"/>
        </g>
        <g id="Groupe_190" data-name="Groupe 190">
          <path id="Tracé_204" data-name="Tracé 204" class="cls-1" d="M378.609,232.209a11.951,11.951,0,1,0-17.82,0c-4.859,4-7.058,9.139-7.822,18.4,0,4.022,0,8.525,5.181,9.407l2.061,10.294c1.364,5.458,5.089,8.982,9.49,8.982s8.127-3.524,9.516-9.092l2.037-10.184c5.181-.885,5.18-5.406,5.173-9.606C385.668,241.345,383.469,236.206,378.609,232.209Z" transform="translate(321.304 307.444)"/>
          <path id="Tracé_205" data-name="Tracé 205" class="cls-2" d="M365.877,277.239c-5.24,0-9.639-4.052-11.207-10.323l-.019-.082-1.837-9.177c-5.439-1.628-5.439-7.141-5.439-10.871l.006-.146c.737-8.938,2.784-14.3,7.169-18.478a13.593,13.593,0,0,1-2.395-7.669,13.722,13.722,0,0,1,27.444,0,13.59,13.59,0,0,1-2.4,7.671c4.333,4.145,6.439,9.592,7.164,18.277l.006.144a19.71,19.71,0,0,1-.749,6.657,6.875,6.875,0,0,1-4.681,4.412l-1.832,9.152C375.529,273.144,371.12,277.239,365.877,277.239ZM358.115,266.1c1.168,4.619,4.211,7.6,7.762,7.6s6.606-3.025,7.788-7.71l2.267-11.335,1.2-.2c3.345-.571,3.7-2.813,3.7-7.785-.719-8.514-2.732-13.259-7.169-16.908l-1.419-1.167,1.219-1.375a10.181,10.181,0,1,0-15.17,0l1.219,1.375-1.419,1.167c-4.438,3.651-6.453,8.451-7.176,17.1,0,4.729.383,7.022,3.708,7.589l1.2.2Z" transform="translate(325.126 311.267)"/>
        </g>
      </g>
    </g>
    <g id="Ellipse_45" data-name="Ellipse 45" class="cls-4" transform="translate(606 456)">
      <circle class="cls-5" cx="84.5" cy="84.5" r="84.5"/>
      <circle class="cls-6" cx="84.5" cy="84.5" r="84"/>
    </g>
  </g>
</svg>
