<svg xmlns="http://www.w3.org/2000/svg" width="169" height="169" viewBox="0 0 169 169">
  <defs>
    <style>
      .cls-1 {
        fill: #860e04;
      }

      .cls-2 {
        fill: #fff;
      }

      .cls-3, .cls-5 {
        fill: none;
      }

      .cls-3 {
        stroke: #860e04;
      }

      .cls-4 {
        stroke: none;
      }
    </style>
  </defs>
  <g id="Groupe_201" data-name="Groupe 201" transform="translate(-876 -456)">
    <g id="Groupe_200" data-name="Groupe 200">
      <circle id="Ellipse_40" data-name="Ellipse 40" class="cls-1" cx="75" cy="75" r="75" transform="translate(886 466)"/>
      <g id="Groupe_199" data-name="Groupe 199">
        <path id="Tracé_215" data-name="Tracé 215" class="cls-2" d="M345.8,215.756c-8,0-14.71-6.183-17.1-15.753l-.028-.125-2.8-14.005c-8.3-2.484-8.3-10.9-8.3-16.59l.009-.222c1.125-13.639,4.249-21.826,10.94-28.2a20.743,20.743,0,0,1-3.654-11.7,20.94,20.94,0,1,1,41.88,0,20.741,20.741,0,0,1-3.656,11.706c6.612,6.326,9.827,14.637,10.931,27.891l.009.22c.006,3.284.012,7.006-1.143,10.159a10.49,10.49,0,0,1-7.143,6.733l-2.8,13.966C360.524,209.506,353.8,215.756,345.8,215.756Zm-11.845-17c1.783,7.048,6.427,11.6,11.845,11.6s10.081-4.616,11.885-11.766l3.459-17.3,1.831-.312c5.1-.872,5.654-4.293,5.646-11.88-1.1-12.993-4.169-20.233-10.94-25.8l-2.166-1.781,1.86-2.1a15.536,15.536,0,1,0-23.151,0l1.86,2.1-2.165,1.781c-6.773,5.572-9.847,12.9-10.951,26.1.006,7.217.584,10.716,5.658,11.581l1.831.312Z" transform="translate(616.046 380.184)"/>
        <g id="Groupe_167" data-name="Groupe 167" transform="translate(951.167 529.351)">
          <path id="Tracé_216" data-name="Tracé 216" class="cls-2" d="M380.036,260.334a11.1,11.1,0,0,1,3.087-7.636l3.358-3.358a5.79,5.79,0,1,0-9.856-4.116c0,3.249-4.929,3.574-4.929,0a10.669,10.669,0,1,1,18.251,7.528l-3.412,3.412a5.552,5.552,0,0,0-1.57,4.17v1.517c0,2.87-4.928,3.249-4.928,0Zm2.328,12.023a3.141,3.141,0,1,1,0-6.282,3.142,3.142,0,0,1,0,6.282Z" transform="translate(-371.695 -234.447)"/>
        </g>
      </g>
    </g>
    <g id="Ellipse_46" data-name="Ellipse 46" class="cls-3" transform="translate(876 456)">
      <circle class="cls-4" cx="84.5" cy="84.5" r="84.5"/>
      <circle class="cls-5" cx="84.5" cy="84.5" r="84"/>
    </g>
  </g>
</svg>
