<svg xmlns="http://www.w3.org/2000/svg" width="169" height="169" viewBox="0 0 169 169">
  <defs>
    <style>
      .cls-1 {
        fill: #860e04;
      }

      .cls-2 {
        fill: #fff;
        stroke: #fff;
        stroke-linecap: round;
        stroke-linejoin: round;
        stroke-width: 6px;
      }

      .cls-3, .cls-5 {
        fill: none;
      }

      .cls-3 {
        stroke: #860e04;
      }

      .cls-4 {
        stroke: none;
      }
    </style>
  </defs>
  <g id="Groupe_205" data-name="Groupe 205" transform="translate(-1416 -456)">
    <g id="Groupe_204" data-name="Groupe 204">
      <circle id="Ellipse_42" data-name="Ellipse 42" class="cls-1" cx="75" cy="75" r="75" transform="translate(1426 466)"/>
      <g id="Groupe_171" data-name="Groupe 171" transform="translate(1457.124 497.125)">
        <path id="Tracé_240" data-name="Tracé 240" class="cls-2" d="M398.516,197.674a44.161,44.161,0,0,0,0-9.308c-3.995-.945-8.243-1.764-12.7-2.441a31.547,31.547,0,0,0-4.045-9.756c2.673-3.63,5.1-7.213,7.255-10.707a44.13,44.13,0,0,0-6.583-6.583c-3.493,2.157-7.076,4.582-10.707,7.255a31.535,31.535,0,0,0-9.756-4.045c-.677-4.457-1.5-8.7-2.441-12.7a44.212,44.212,0,0,0-9.307,0c-.945,4-1.764,8.243-2.441,12.7a31.535,31.535,0,0,0-9.756,4.045c-3.63-2.673-7.213-5.1-10.707-7.255a44.127,44.127,0,0,0-6.583,6.583c2.157,3.493,4.582,7.076,7.255,10.707a31.538,31.538,0,0,0-4.045,9.756c-4.457.677-8.7,1.5-12.7,2.441a44.155,44.155,0,0,0,0,9.308c3.995.945,8.243,1.764,12.7,2.44A31.532,31.532,0,0,0,328,209.871c-2.673,3.63-5.1,7.213-7.255,10.707a44.13,44.13,0,0,0,6.583,6.583c3.493-2.157,7.076-4.583,10.707-7.255a31.535,31.535,0,0,0,9.756,4.045c.677,4.456,1.5,8.7,2.441,12.7a44.215,44.215,0,0,0,9.307,0c.945-4,1.764-8.244,2.441-12.7a31.536,31.536,0,0,0,9.756-4.045c3.63,2.673,7.213,5.1,10.707,7.255a44.133,44.133,0,0,0,6.583-6.583c-2.157-3.493-4.582-7.076-7.255-10.706a31.539,31.539,0,0,0,4.045-9.756C390.273,199.438,394.521,198.619,398.516,197.674ZM354.887,218.7a25.676,25.676,0,1,1,25.676-25.676A25.676,25.676,0,0,1,354.887,218.7Z" transform="translate(-311.011 -149.145)"/>
        <path id="Tracé_241" data-name="Tracé 241" class="cls-2" d="M414.781,237.691A15.224,15.224,0,1,0,430,252.914,15.223,15.223,0,0,0,414.781,237.691Zm0,26.8a11.58,11.58,0,1,1,11.58-11.58A11.58,11.58,0,0,1,414.781,264.494Z" transform="translate(-370.906 -209.039)"/>
      </g>
    </g>
    <g id="Ellipse_48" data-name="Ellipse 48" class="cls-3" transform="translate(1416 456)">
      <circle class="cls-4" cx="84.5" cy="84.5" r="84.5"/>
      <circle class="cls-5" cx="84.5" cy="84.5" r="84"/>
    </g>
  </g>
</svg>
