<svg xmlns="http://www.w3.org/2000/svg" width="555.939" height="686.644" viewBox="0 0 555.939 686.644">
  <defs>
    <style>
      .cls-1 {
        fill: #fff;
      }
    </style>
  </defs>
  <path id="Soustraction_6" data-name="Soustraction 6" class="cls-1" d="M36.215,686.644h0l-30.743,0c-1.838-1.642-3.679-3.324-5.472-5V653.956a306.145,306.145,0,0,0,36.216,32.687Zm402.322,0H407.912c4.105-3.148,8.21-6.466,12.2-9.863a305.356,305.356,0,0,0,96.031-315.1c-12.2-9.752-24.156-20.14-35.527-30.875-11.348-10.714-22.388-22.03-32.812-33.635s-20.495-23.784-29.94-36.215-18.508-25.438-26.907-38.619c-9.834-15.178-19.1-30.981-27.554-46.971s-16.281-32.556-23.278-49.231L222.072,25.639,103.519,125.967c-7,16.712-14.836,33.315-23.3,49.346s-17.739,31.863-27.592,47.079c-8.351,13.107-17.347,26.026-26.739,38.4C17.695,271.588,8.983,282.247,0,292.47V99.941A410.7,410.7,0,0,1,64.837,35.114c0,9.217-.777,18.493-1.616,27.144C74.564,51.505,86.566,41.18,98.891,31.569s25.267-18.732,38.461-27.111a453.375,453.375,0,0,1-19.787,84.164L221.515,0l104.73,89.18A453.845,453.845,0,0,1,306.236,4.46C319.559,12.848,332.61,22,345.028,31.667s24.5,20.071,35.9,30.926c-.969-10.117-1.516-19.105-1.672-27.479a396.7,396.7,0,0,1,34.557,31.17,458.543,458.543,0,0,1,32.885,37.179,519.133,519.133,0,0,1,57.409,90.5,519.537,519.537,0,0,1,38.041,100.257,443.352,443.352,0,0,1,9.928,48.587,372.04,372.04,0,0,1,3.866,46.236l-.613-.5v.5c-5.182-3.166-10.242-6.533-14.937-9.7A324.922,324.922,0,0,1,438.538,686.643ZM37.024,648.783h0l-.006-.005c-.744-.653-7.537-6.675-16.888-16.76-5.747-6.2-11.3-12.671-16.5-19.241-1.222-1.545-2.445-3.121-3.634-4.685V401.253c6.249-6.649,13.247-13.484,20.8-20.314,23.05-20.844,52.3-42.706,86.942-64.977,30.99-19.925,60.462-36.387,79.73-46.689,21.093-11.277,35-17.9,35.158-17.9.579.277,14.4,6.908,34.924,17.9,12.324,6.6,24.644,13.463,36.618,20.4,14.984,8.683,29.5,17.528,43.138,26.287,34.7,22.287,64,44.148,87.072,64.977A311.055,311.055,0,0,1,458.937,417a182.442,182.442,0,0,1,12.98,18.352,122.582,122.582,0,0,1,9.334,18.346,113.64,113.64,0,0,1,8.017,36.387,129.861,129.861,0,0,1-3.139,35.245c-4.53,20.225-13.719,41.248-27.311,62.487a293.326,293.326,0,0,1-17.953,24.956c-5.257,6.572-10.867,13.046-16.673,19.242-9.579,10.221-16.762,16.5-17.064,16.759l-.005,0-185.049-79.7-185.048,79.7Zm332.2-198.425a43.392,43.392,0,1,0,16.914,3.431A43.2,43.2,0,0,0,369.219,450.358Zm-294.293,0a43.393,43.393,0,1,0,16.913,3.431A43.207,43.207,0,0,0,74.926,450.358ZM222.072,304.326h0l-57.409,105.9,57.409,57.409,57.409-57.409-57.409-105.9Z" transform="translate(555.939 686.644) rotate(180)"/>
</svg>
